<svg width="146" height="32" viewBox="0 0 146 32" fill="none" xmlns="http://www.w3.org/2000/svg">
<path d="M33.1492 26.2059L35.8771 6.70876C37.3968 6.55746 39.5154 6.48181 42.2331 6.48181C44.6153 6.48181 46.265 6.86006 47.1823 7.61312C48.0996 8.36619 48.4214 9.72445 48.1373 11.681C47.9319 13.0943 47.528 14.15 46.929 14.8446C46.3301 15.5426 45.4367 15.9484 44.2559 16.0584L44.2285 16.1994C46.8161 16.4057 47.8669 18.1594 47.3774 21.4571C47.0762 23.4171 46.4396 24.7341 45.4641 25.4115C44.4886 26.0889 42.8765 26.4294 40.6278 26.4294C37.3489 26.4328 34.8571 26.3572 33.1492 26.2059ZM36.2159 24.0051L40.2102 24.0326C41.747 24.0326 42.8252 23.8126 43.4447 23.369C44.0642 22.9254 44.4681 22.0554 44.6529 20.7556C44.8412 19.363 44.694 18.4242 44.2183 17.9428C43.7391 17.4614 42.7431 17.2138 41.2234 17.1932H37.1743L36.2159 24.0051ZM37.4823 15.0165H41.3637C42.7123 15.0165 43.6843 14.7896 44.2764 14.3391C44.8686 13.8886 45.2553 13.0393 45.4436 11.7945C45.6113 10.6082 45.4607 9.82761 44.9918 9.44936C44.5229 9.07455 43.5577 8.88542 42.0962 8.88542H38.3278L37.4823 15.0165Z" fill="#47A138"/>
<path d="M60.377 12.4169H63.2179C62.2047 16.9009 60.8836 20.6971 59.2509 23.8057C57.7894 26.5944 56.3382 28.5716 54.9041 29.7408C53.47 30.9099 51.7586 31.663 49.77 32L49.2634 30.0502C50.4648 29.7683 51.5122 29.3453 52.4123 28.778C53.3125 28.214 54.175 27.3544 54.9999 26.2058H53.7335C53.3022 26.2058 52.936 26.0889 52.6382 25.8517C52.337 25.6178 52.1488 25.2912 52.0769 24.8751L49.4346 12.4135H52.3062L54.3872 23.5753C54.442 23.8951 54.6303 24.0567 54.9486 24.0567H56.3279C56.4032 23.926 56.5059 23.73 56.636 23.479C56.766 23.2245 56.8516 23.0595 56.8893 22.9838C58.539 19.5383 59.7027 16.0171 60.377 12.4169Z" fill="#47A138"/>
<path d="M68.8139 14.5351L67.7152 22.2789C67.6228 22.9391 67.6809 23.3861 67.8966 23.62C68.1122 23.8572 68.5469 23.9741 69.2041 23.9741H71.2577L71.3706 26.0923C70.5458 26.3365 69.4779 26.4603 68.1635 26.4603C66.9451 26.4603 66.0688 26.1199 65.5349 25.4424C65.001 24.765 64.8161 23.7953 64.9873 22.5334L66.1133 14.5351H63.6113L63.8646 12.5579L66.4248 12.4169L67.0169 8.37646H69.6901L69.1288 12.4169H73.349L73.0683 14.5351H68.8139Z" fill="#47A138"/>
<path d="M84.651 23.9191L84.8187 25.7554C83.4873 26.2815 81.6013 26.5462 79.1644 26.5462C76.8198 26.5462 75.1974 25.9307 74.2973 24.6963C73.3971 23.4618 73.1164 21.5465 73.4518 18.9468C73.8078 16.2922 74.5334 14.4766 75.6321 13.5069C76.7274 12.5372 78.5346 12.0524 81.0469 12.0524C83.1861 12.0524 84.6373 12.4306 85.4074 13.1837C86.1775 13.9367 86.4582 15.0474 86.2528 16.5192C86.0269 17.8568 85.5032 18.8231 84.6784 19.4145C83.8535 20.0094 82.5871 20.3704 80.8826 20.5011L76.1284 20.9241C76.1079 22.2239 76.3817 23.1042 76.943 23.5649C77.5043 24.0257 78.3874 24.2561 79.5854 24.2561C80.862 24.2561 82.5494 24.1461 84.651 23.9191ZM76.2961 18.8884L80.8826 18.4654C81.7451 18.4104 82.3749 18.2247 82.7685 17.9153C83.1621 17.6058 83.4154 17.0625 83.5283 16.2888C83.6413 15.405 83.4941 14.8583 83.0937 14.6485C82.6898 14.4422 81.8717 14.3391 80.6327 14.3391C79.2089 14.3391 78.1992 14.6348 77.6104 15.2297C77.0149 15.8211 76.5768 17.0418 76.2961 18.8884Z" fill="#47A138"/>
<path d="M92.5538 6.42676L91.794 12.1349C91.6263 13.3797 91.3799 14.4319 91.0615 15.2985C91.9617 14.3941 92.9509 13.6307 94.029 13.0083C95.1072 12.3859 96.1066 12.0764 97.0239 12.0764C98.1123 12.0764 98.9475 12.2793 99.5259 12.6851C100.108 13.0908 100.519 13.8439 100.765 14.9443C101.008 16.0446 100.97 17.5576 100.652 19.4798C100.447 21.0238 100.156 22.2823 99.7792 23.252C99.4027 24.2217 98.9167 24.9438 98.3177 25.4149C97.7187 25.886 97.1095 26.1955 96.49 26.3468C95.8705 26.4981 95.073 26.5738 94.1009 26.5738C91.8145 26.5738 89.5076 26.2333 87.1802 25.5559L89.8533 6.42676H92.5538ZM91.0068 17.4476L90.0792 24.2286C91.4278 24.2836 92.4306 24.3146 93.0878 24.3146C94.8676 24.3146 96.0416 24.0292 96.6029 23.4515C97.1643 22.8772 97.5955 21.488 97.8967 19.2838C98.1603 17.231 98.1876 15.9105 97.9823 15.326C97.7769 14.7414 97.243 14.4491 96.3804 14.4491C95.049 14.4525 93.2589 15.4498 91.0068 17.4476Z" fill="#47A138"/>
<path d="M114.213 26.2059H112.074L112.187 23.6613C110.537 25.5835 108.569 26.5428 106.279 26.5428C104.609 26.5428 103.486 25.9961 102.904 24.9026C102.322 23.8091 102.22 21.8869 102.596 19.1394C102.801 17.6127 103.092 16.3645 103.469 15.3948C103.845 14.4251 104.342 13.703 104.961 13.2319C105.581 12.7608 106.217 12.4444 106.875 12.2862C107.532 12.1281 108.374 12.0455 109.407 12.0455C111.639 12.0455 113.881 12.2897 116.13 12.7814L114.213 26.2059ZM112.159 21.2336L113.145 14.3941C111.42 14.3563 110.455 14.3391 110.249 14.3391C109.274 14.3391 108.535 14.3872 108.028 14.4801C107.521 14.5729 107.076 14.8136 106.693 15.2022C106.31 15.5873 106.026 16.0825 105.848 16.6843C105.67 17.286 105.495 18.1732 105.327 19.3389C105.064 21.3918 105.033 22.7122 105.228 23.2933C105.427 23.8779 105.964 24.1702 106.847 24.1702C107.71 24.1702 108.552 23.9295 109.38 23.4481C110.198 22.9735 111.129 22.2342 112.159 21.2336Z" fill="#47A138"/>
<path d="M121.301 12.4169L121.161 15.3844C123.636 13.1631 125.802 12.049 127.657 12.049C128.821 12.049 129.701 12.3825 130.3 13.053C130.899 13.7236 131.104 14.6795 130.919 15.9209L129.458 26.2058H126.757L128.078 16.5983C128.191 15.7317 128.157 15.1437 127.979 14.8308C127.801 14.5213 127.411 14.3632 126.812 14.3632C126.042 14.3632 125.241 14.6004 124.406 15.0681C123.571 15.5392 122.479 16.3129 121.13 17.3857L119.922 26.2024H117.194L119.135 12.4134H121.301V12.4169Z" fill="#47A138"/>
<path d="M142.902 12.4169H145.688C144.901 14.8858 143.381 16.9284 141.133 18.548C141.413 18.9812 141.694 19.528 141.978 20.1882L144.651 26.2058H141.725L139.082 19.8478C138.237 20.3017 137.152 20.8278 135.821 21.4296L135.119 26.2058H132.418L135.174 6.42676H137.902L136.663 15.6939C136.495 16.8252 136.194 17.9531 135.762 19.0844C137.542 18.2351 139.086 17.2447 140.39 16.1031C141.687 14.9649 142.526 13.7373 142.902 12.4169Z" fill="#47A138"/>
<path d="M13.4753 20.03H0V26.8007H13.4753V20.03Z" fill="#47A138"/>
<path d="M20.1667 6.53687H6.69141V20.0748H20.1667V6.53687Z" fill="#47A138"/>
<path d="M6.64704 0H0.0925293V6.49216H6.64704V0Z" fill="#47A138"/>
<path d="M26.5808 0H20.1187V6.49216H26.5808V0Z" fill="#47A138"/>
</svg>
